PathFileType	4	(X/Y/Z)	/Users/itak/Documents/Research/Walk-IL/dataset/trc/00429_00167.trc
DataRate	CameraRate	NumFrames	NumMarkers	Units	OrigDataRate	OrigDataStartFrame	OrigNumFrames
100.000000	100.000000	4	53	mm	100.000000	420	673
Frame#	Time	RPSI			LPSI			L3			STRN			T10			C7			CLAV			RBAK			LBAK			LSHO			LUPA			LAEL			LAOL			LWTS			LWPS			LFRA			LIFD			LHPS			LHTS			RSHO			RUPA			RAEL			RAOL			RWTS			RWPS			RFRA			RIFD			RHTS			RHPS			RBHD			LFHD			RFHD			LBHD			LHIP			RHIP			RASI			LASI			LKNE			LTHI			LANK			LTIP			LTOE			LMT1			LMT5			LHEE			RKNE			RTHI			RANK			RTIP			RTOE			RMT1			RMT5			RHEE			
		X1	Y1	Z1	X2	Y2	Z2	X3	Y3	Z3	X4	Y4	Z4	X5	Y5	Z5	X6	Y6	Z6	X7	Y7	Z7	X8	Y8	Z8	X9	Y9	Z9	X10	Y10	Z10	X11	Y11	Z11	X12	Y12	Z12	X13	Y13	Z13	X14	Y14	Z14	X15	Y15	Z15	X16	Y16	Z16	X17	Y17	Z17	X18	Y18	Z18	X19	Y19	Z19	X20	Y20	Z20	X21	Y21	Z21	X22	Y22	Z22	X23	Y23	Z23	X24	Y24	Z24	X25	Y25	Z25	X26	Y26	Z26	X27	Y27	Z27	X28	Y28	Z28	X29	Y29	Z29	X30	Y30	Z30	X31	Y31	Z31	X32	Y32	Z32	X33	Y33	Z33	X34	Y34	Z34	X35	Y35	Z35	X36	Y36	Z36	X37	Y37	Z37	X38	Y38	Z38	X39	Y39	Z39	X40	Y40	Z40	X41	Y41	Z41	X42	Y42	Z42	X43	Y43	Z43	X44	Y44	Z44	X45	Y45	Z45	X46	Y46	Z46	X47	Y47	Z47	X48	Y48	Z48	X49	Y49	Z49	X50	Y50	Z50	X51	Y51	Z51	X52	Y52	Z52	X53	Y53	Z53	

421	4.2	323.8636474609375	952.2223510742188	591.8458862304688	387.6946411132812	954.0826416015625	465.843994140625	363.38232421875	1042.370727539062	544.9862670898438	597.6585083007812	1232.18115234375	669.7828979492188	345.72265625	1164.690063476562	532.6814575195312	391.5240173339844	1432.042236328125	577.2330932617188	563.5968017578125	1345.747436523438	653.8330078125	294.8990478515625	1306.82861328125	628.04931640625	415.4534301757812	1388.135498046875	474.241455078125	545.1952514648438	1409.968994140625	457.590576171875	584.3995971679688	1295.83837890625	360.9284057617188	607.4061889648438	1080.0166015625	329.4614562988281	507.0581359863281	1068.476928710938	351.1364440917969	646.358154296875	866.6743774414062	389.3332824707031	631.0928344726562	858.8900146484375	317.2900085449219	625.2849731445312	991.525146484375	323.6003723144531	623.0521240234375	697.7940673828125	374.4390563964844	622.9248657226562	776.8080444335938	316.0109558105469	648.9802856445312	773.456298828125	381.5709838867188	377.60888671875	1395.987182617188	751.1696166992188	324.4526977539062	1335.677856445312	808.3606567382812	285.9622192382812	1052.387084960938	860.8458862304688	262.9269104003906	1032.174560546875	799.6864013671875	406.4636535644531	858.01220703125	887.5034790039062	322.4777221679688	838.8539428710938	902.76708984375	286.6759338378906	994.6099243164062	874.1918334960938	411.4163513183594	699.4346313476562	900.365478515625	417.3990173339844	759.0108032226562	908.5828247070312	342.8662414550781	753.5855102539062	912.28564453125	409.7874450683594	1626.272705078125	686.8565063476562	602.0911254882812	1652.403686523438	615.9739990234375	538.9898071289062	1652.175170898438	730.4069213867188	481.8409118652344	1630.899291992188	523.8866577148438	545.7042236328125	839.8291015625	411.2911376953125	372.6825561523438	848.0184326171875	772.832275390625	491.2093505859375	887.855224609375	752.5896606445312	609.5592041015625	871.9339599609375	526.6898803710938	473.1794128417969	425.1370239257812	377.8168029785156	535.4925537109375	571.7402954101562	401.1793212890625	190.4783782958984	148.6066589355469	201.3394165039062	386.0681762695312	307.6176147460938	309.5823669433594	231.3858489990234	33.84360885620117	376.4878845214844	190.8057708740234	74.00117492675781	356.8736267089844	251.6860504150391	40.8884162902832	270.2660827636719	150.2574157714844	208.4354400634766	213.1439056396484	472.7611389160156	454.2244262695312	765.3247680664062	424.1305541992188	715.5621948242188	804.0982666015625	531.3145141601562	36.85860824584961	754.2218017578125	498.7146606445312	309.0822448730469	780.7105712890625	742.059814453125	46.89520645141602	821.9581298828125	703.342529296875	50.94717025756836	756.8159790039062	635.2024536132812	43.67706680297852	839.7097778320312	497.1250305175781	28.25896835327148	680.8632202148438	
422	4.21	328.8647155761719	953.6300048828125	596.7174072265625	391.9902954101562	954.4818725585938	470.3735046386719	368.1610412597656	1043.41455078125	550.459716796875	602.5155639648438	1233.02587890625	674.9739990234375	350.2760009765625	1165.604125976562	538.3862915039062	395.9635314941406	1432.986450195312	583.0320434570312	568.2863159179688	1346.597778320312	659.356689453125	299.5332641601562	1307.574584960938	634.0374755859375	419.6739196777344	1389.212890625	479.8171997070312	549.3991088867188	1410.927124023438	463.2229614257812	589.416259765625	1296.850463867188	366.8887939453125	615.2545776367188	1081.340576171875	335.9460144042969	514.9716186523438	1068.525390625	356.3674621582031	657.44970703125	869.6921997070312	399.1015014648438	643.4829711914062	860.6165771484375	326.9425659179688	634.8270263671875	993.1094970703125	331.3523559570312	637.9171752929688	700.2415771484375	386.3560180664062	637.124267578125	778.4002075195312	326.7247619628906	662.1365966796875	776.5416259765625	392.7745361328125	382.4358520507812	1396.841064453125	756.9534301757812	329.4603881835938	1336.551147460938	814.2957763671875	291.9862976074219	1053.57275390625	868.4752807617188	269.0928649902344	1032.165649414062	807.711181640625	417.223876953125	862.8938598632812	897.5285034179688	333.6916809082031	841.6941528320312	913.1815795898438	294.0511474609375	995.8999633789062	882.4166259765625	426.9266967773438	704.8915405273438	913.595703125	431.0101928710938	764.686279296875	920.8118286132812	356.6618957519531	757.2254638671875	924.3600463867188	414.4700927734375	1627.332763671875	692.7005004882812	606.7882690429688	1653.306640625	621.8086547851562	543.7147216796875	1653.080200195312	736.23974609375	486.4905395507812	1631.997680664062	529.705078125	549.8062133789062	839.8597412109375	416.1863708496094	377.7337341308594	849.11328125	777.4164428710938	496.3776245117188	888.5057983398438	757.0658569335938	614.3272094726562	872.8477783203125	530.9464111328125	484.2079162597656	424.210205078125	383.2334899902344	544.4871215820312	571.5809326171875	406.1179504394531	196.7221221923828	154.1874542236328	205.3053741455078	395.2605895996094	308.2223205566406	314.5586853027344	235.6104736328125	33.01805114746094	377.9573059082031	196.0603942871094	76.76025390625	359.755615234375	254.8050231933594	42.39231109619141	272.3121337890625	158.0125274658203	214.5821685791016	218.2505493164062	474.1639404296875	454.409423828125	767.5468139648438	428.34765625	716.23681640625	807.839111328125	531.1614379882812	36.76133346557617	754.3815307617188	499.3762817382812	309.0933227539062	782.1156005859375	741.6722412109375	47.22040939331055	822.3115234375	703.3233642578125	51.1115837097168	756.982421875	635.1357421875	43.46415328979492	839.9097290039062	497.0349426269531	28.16721534729004	680.97998046875	
423	4.22	333.7030029296875	954.8389892578125	601.3419189453125	396.2146301269531	954.65283203125	474.6755065917969	372.816650390625	1044.315673828125	555.7167358398438	607.2550048828125	1233.7109375	679.9818725585938	354.6973266601562	1166.384033203125	543.9268188476562	400.2920532226562	1433.83154296875	588.7332763671875	572.8779296875	1347.294067382812	664.7103881835938	304.0634765625	1308.2470703125	639.9301147460938	423.75732421875	1390.18994140625	485.2647399902344	553.459228515625	1411.718505859375	468.6846923828125	594.23974609375	1297.671875	372.6800842285156	622.9677124023438	1082.557861328125	342.2987060546875	522.7928466796875	1068.378784179688	361.5518493652344	668.61767578125	872.8549194335938	408.8311157226562	655.9271240234375	862.4588623046875	336.5987243652344	644.30322265625	994.657958984375	339.0206298828125	653.4330444335938	702.9295043945312	398.280517578125	651.65087890625	780.20068359375	337.4628601074219	675.6530151367188	779.8871459960938	403.9328002929688	387.2301330566406	1397.571166992188	762.6484375	334.4644165039062	1337.277709960938	820.1727294921875	298.0431823730469	1054.673950195312	876.0635375976562	275.2358093261719	1032.1025390625	815.724365234375	427.7691345214844	867.7849731445312	907.3775634765625	344.7527465820312	844.6080322265625	923.4817504882812	301.4183959960938	997.1442260742188	890.5835571289062	442.1337585449219	710.5694580078125	926.8019409179688	444.3175354003906	770.4799194335938	932.939697265625	370.2586975097656	761.03759765625	936.4032592773438	419.0684204101562	1628.241455078125	698.4219970703125	611.3804321289062	1654.12890625	627.4873046875	548.3467407226562	1653.88232421875	741.9313354492188	491.0295104980469	1632.96240234375	535.3966064453125	554.0009155273438	839.7152709960938	421.0101318359375	382.6200866699219	850.08837890625	781.830810546875	501.3357543945312	889.0932006835938	761.4146728515625	618.9987182617188	873.606689453125	535.1148681640625	495.4115600585938	423.1938781738281	388.8227233886719	553.644287109375	571.2861938476562	411.2321472167969	203.1189422607422	159.6595153808594	209.70556640625	404.6175231933594	308.7351379394531	319.7828369140625	241.1276397705078	32.30093383789062	379.7128601074219	202.3005981445312	79.57774353027344	363.1662292480469	258.5524291992188	44.22360992431641	274.6396179199219	165.7846221923828	220.4727325439453	223.8114471435547	475.5576782226562	454.5715026855469	769.6805419921875	432.4795227050781	716.8362426757812	811.444580078125	531.0409545898438	36.67118453979492	754.5114135742188	499.9910278320312	309.0867309570312	783.4212036132812	741.2391967773438	47.63636016845703	822.7156982421875	703.296630859375	51.28152084350586	757.17041015625	635.063232421875	43.2503662109375	840.116455078125	496.9605102539062	28.09271049499512	681.0821533203125	
424	4.23	338.3752746582031	955.8660888671875	605.7355346679688	400.3911437988281	954.6360473632812	478.7653198242188	377.3411254882812	1045.09521484375	560.7591552734375	611.872314453125	1234.266967773438	684.8094482421875	358.9896850585938	1167.06689453125	549.3016967773438	404.5098876953125	1434.593627929688	594.3201904296875	577.3638305664062	1347.864501953125	669.8875122070312	308.48974609375	1308.86474609375	645.7142944335938	427.7088012695312	1391.082641601562	490.5779418945312	557.3858642578125	1412.379638671875	473.9729309082031	598.8849487304688	1298.344604492188	378.2948913574219	630.5126953125	1083.70068359375	348.5155639648438	530.4777221679688	1068.08935546875	366.7236328125	679.818115234375	876.2055053710938	418.4793395996094	668.3397827148438	864.460205078125	346.2232666015625	653.663330078125	996.2090454101562	346.586181640625	669.5346069335938	705.9411010742188	410.19091796875	666.40185546875	782.2658081054688	348.19970703125	689.4686889648438	783.5541381835938	415.0006408691406	391.98486328125	1398.205078125	768.235595703125	339.4603271484375	1337.892211914062	825.9794311523438	304.1542358398438	1055.716674804688	883.6089477539062	281.3772583007812	1032.0185546875	823.715576171875	438.0723266601562	872.6524658203125	917.0243530273438	355.641845703125	847.5853881835938	933.6464233398438	308.7827758789062	998.3739624023438	898.6989135742188	456.942138671875	716.4224243164062	939.9028930664062	457.271728515625	776.3828125	944.8729248046875	383.5945434570312	764.99658203125	948.3387451171875	423.5911254882812	1629.0166015625	704.0219116210938	615.8787231445312	1654.877807617188	633.0111694335938	552.8958740234375	1654.581420898438	747.4869384765625	495.4719543457031	1633.82421875	540.9574584960938	558.3211669921875	839.4632568359375	425.7403259277344	387.3287658691406	850.947265625	786.073974609375	506.0979919433594	889.62109375	765.6333618164062	623.57373046875	874.253173828125	539.2044677734375	506.7451782226562	422.1445922851562	394.5887451171875	562.9547119140625	570.914306640625	416.5256958007812	209.6823425292969	164.8940277099609	214.5841674804688	414.1240539550781	309.1861572265625	325.2469787597656	248.1707611083984	31.79057693481445	381.8606872558594	209.6479949951172	82.374267578125	367.1673889160156	263.1517944335938	46.38240814208984	277.333251953125	173.5318908691406	225.9736633300781	229.8428192138672	476.9408264160156	454.7117614746094	771.7163696289062	436.4985656738281	717.3552856445312	814.905029296875	530.9536743164062	36.5890007019043	754.6109008789062	500.56689453125	309.0604553222656	784.6358032226562	740.78466796875	48.10815811157227	823.1405029296875	703.262939453125	51.45291519165039	757.3717041015625	634.9866943359375	43.0391960144043	840.3245239257812	496.8977661132812	28.03425216674805	681.1690063476562	
